<svg width="946" height="767" viewBox="0 0 946 767" fill="none" xmlns="http://www.w3.org/2000/svg">
<path opacity="0.105263" d="M-197.949 -220.684C-139.227 -210.91 -32.1094 -128.056 -73.4131 125.16C-114.717 378.376 24.6474 745.728 99.4924 897.753" stroke="#B01030" stroke-width="0.244265"/>
<path opacity="0.157895" d="M-183.472 -203.732C-124.177 -199.425 -10.587 -128.161 -30.5893 122.444C-50.5917 373.05 118.852 718.881 206.075 860.471" stroke="#B01030" stroke-width="0.244265"/>
<path opacity="0.210526" d="M-167.504 -187.041C-108.142 -188.227 10.7171 -129.035 11.2538 117.215C11.7905 363.464 208.634 685.386 306.989 815.566" stroke="#B01030" stroke-width="0.244265"/>
<path opacity="0.263158" d="M-150.075 -170.742C-91.1507 -177.396 31.7415 -130.639 51.9162 109.621C72.0909 349.881 293.472 645.81 401.641 763.742" stroke="#B01030" stroke-width="0.244265"/>
<path opacity="0.315789" d="M-131.224 -154.961C-73.238 -167.013 52.4299 -132.929 91.2164 99.8302C130.003 332.589 372.91 600.755 489.516 705.744" stroke="#B01030" stroke-width="0.244265"/>
<path opacity="0.368421" d="M-111.001 -139.819C-54.4457 -157.155 72.7304 -135.858 128.992 88.0216C185.253 311.901 446.558 550.86 570.178 642.355" stroke="#B01030" stroke-width="0.244265"/>
<path opacity="0.421053" d="M-89.468 -125.434C-34.8213 -147.894 92.5981 -139.374 165.102 74.386C237.606 288.146 514.097 496.786 643.28 574.386" stroke="#B01030" stroke-width="0.244265"/>
<path opacity="0.473684" d="M-66.6953 -111.917C-14.4186 -139.298 111.993 -143.424 199.428 59.1224C286.862 261.669 575.278 439.212 708.557 502.665" stroke="#B01030" stroke-width="0.244265"/>
<path opacity="0.526316" d="M-42.7635 -99.3728C6.70277 -131.431 130.882 -147.95 231.87 42.4381C332.858 232.826 629.922 378.829 765.831 428.031" stroke="#B01030" stroke-width="0.244265"/>
<path opacity="0.578947" d="M-17.7615 -87.8982C28.4786 -124.35 149.238 -152.895 262.354 24.5429C375.47 201.981 677.923 316.329 815.01 351.324" stroke="#B01030" stroke-width="0.244265"/>
<path opacity="0.631579" d="M8.21306 -77.5834C50.8395 -118.109 167.039 -158.199 290.825 5.649C414.612 169.497 719.244 252.404 856.087 273.376" stroke="#B01030" stroke-width="0.244265"/>
<path opacity="0.684211" d="M35.0555 -68.5077C73.7121 -112.754 184.271 -163.803 317.253 -14.0302C450.235 135.742 753.919 187.733 889.138 195.006" stroke="#B01030" stroke-width="0.244265"/>
<path opacity="0.736842" d="M62.6548 -60.7424C97.0195 -108.324 200.924 -169.646 341.625 -34.2852C482.327 101.076 782.045 122.977 914.316 117.008" stroke="#B01030" stroke-width="0.244265"/>
<path opacity="0.789474" d="M90.8935 -54.3486C120.681 -104.853 216.996 -175.671 363.954 -54.9101C510.911 65.8507 803.785 58.7759 931.852 40.1434" stroke="#B01030" stroke-width="0.244265"/>
<path opacity="0.842105" d="M119.65 -49.3767C144.615 -102.367 232.49 -181.82 384.267 -75.7055C536.045 30.4088 819.363 -4.26134 942.05 -34.8607" stroke="#B01030" stroke-width="0.244265"/>
<path opacity="0.894737" d="M148.798 -45.867C168.736 -100.887 247.414 -188.038 402.615 -96.4807C557.817 -4.92359 829.058 -65.5613 945.278 -107.325" stroke="#B01030" stroke-width="0.244265"/>
<path opacity="0.947368" d="M178.208 -43.8471C192.959 -100.423 261.78 -194.271 419.064 -117.053C576.348 -39.8358 833.202 -124.589 941.968 -176.618" stroke="#B01030" stroke-width="0.244265"/>
</svg>
